<svg width="25" height="23" viewBox="0 0 25 23" fill="none" xmlns="http://www.w3.org/2000/svg">
<path d="M12.2808 4.22329V20.6707M7.62074 7.51276H5.15364M8.44311 10.8022H5.15364M23.2457 16.5587V3.32411C23.2457 2.00832 22.1712 1.03244 20.8664 1.14209H20.8006C18.4979 1.33946 15.0001 2.51271 13.0484 3.74078L12.862 3.86139C12.544 4.05876 12.0177 4.05876 11.6997 3.86139L11.4256 3.69692C9.47381 2.47981 5.98697 1.31753 3.68434 1.13113C2.37951 1.02148 1.31592 2.00832 1.31592 3.31314V16.5587C1.31592 17.6113 2.17118 18.5982 3.22381 18.7298L3.5418 18.7736C5.92118 19.0916 9.59443 20.2977 11.6997 21.4491L11.7435 21.471C12.0396 21.6355 12.5111 21.6355 12.7962 21.471C14.9014 20.3087 18.5857 19.0916 20.976 18.7736L21.3378 18.7298C22.3905 18.5982 23.2457 17.6113 23.2457 16.5587Z" stroke="#C2C2C2" stroke-width="1.64474" stroke-linecap="round" stroke-linejoin="round"/>
</svg>
