<svg width="24" height="23" viewBox="0 0 24 23" fill="none" xmlns="http://www.w3.org/2000/svg">
<path d="M22.6 1.09993C22 0.499927 21.2 0.299927 20.4 0.299927H20.3C18.1 0.499927 14.8 1.59993 12.7 2.69993V4.59993V20.2999V22.0999H12.8C14.8 20.9999 18.4 19.7999 20.7 19.4999H21.1C22.5 19.2999 23.7 17.9999 23.7 16.4999V3.29993C23.6 2.49993 23.2 1.69993 22.6 1.09993Z" fill="#DF0E11"/>
<path d="M1 1.09996C0.3 1.69996 0 2.39996 0 3.29996V16.5C0 18 1.2 19.3 2.6 19.5H2.9C5.2 19.8 8.8 21 10.8 22.1H10.9V20.3V4.69996V2.79996C8.9 1.59996 5.5 0.499956 3.3 0.299956C2.4 0.199956 1.6 0.499956 1 1.09996ZM4.7 9.99996H8C8.5 9.99996 8.8 10.4 8.8 10.8C8.8 11.2 8.4 11.6 8 11.6H4.7C4.2 11.6 3.9 11.2 3.9 10.8C3.9 10.4 4.2 9.99996 4.7 9.99996ZM3.8 7.49996C3.8 6.99996 4.2 6.69996 4.6 6.69996H7.1C7.6 6.69996 7.9 7.09996 7.9 7.49996C7.9 7.89996 7.6 8.29996 7.1 8.29996H4.7C4.2 8.29996 3.8 7.99996 3.8 7.49996Z" fill="#DF0E11"/>
</svg>
