<svg width="22" height="23" viewBox="0 0 22 23" fill="none" xmlns="http://www.w3.org/2000/svg">
<path d="M16.1 22.5H5.4C2.4 22.5 0 20.1 0 17.1V10.2C0 8.7 0.9 6.9 2.1 6L7.1 2.1C8.9 0.699998 11.6 0.599998 13.5 1.9L19.3 5.9C20.6 6.8 21.6 8.7 21.6 10.3V17.1C21.5 20.1 19.1 22.5 16.1 22.5ZM10.4 2.5C9.5 2.5 8.7 2.8 8 3.3L3 7.2C2.2 7.8 1.5 9.2 1.5 10.2V17.1C1.5 19.2 3.2 21 5.4 21H16.2C18.3 21 20.1 19.3 20.1 17.1V10.4C20.1 9.3 19.4 7.9 18.5 7.2L12.7 3.2C12 2.7 11.2 2.5 10.4 2.5Z" fill="#8A8A8A"/>
<path d="M10.8 14C10.4 14 10 14.3 10 14.8V17.8C10 18.2 10.3 18.6 10.8 18.6C11.2 18.6 11.6 18.3 11.6 17.8V14.8C11.5 14.3 11.2 14 10.8 14Z" fill="#8A8A8A"/>
</svg>
