<svg width="22" height="22" viewBox="0 0 22 22" fill="none" xmlns="http://www.w3.org/2000/svg">
<path d="M19.7917 5.30898L13.4759 0.890118C11.7544 -0.316023 9.11184 -0.250233 7.45614 1.03266L1.96272 5.31994C0.866228 6.17521 0 7.92959 0 9.31117V16.877C0 19.673 2.26974 21.9537 5.06579 21.9537H16.886C19.682 21.9537 21.9518 19.684 21.9518 16.8879V9.45371C21.9518 7.97345 20.9978 6.15328 19.7917 5.30898ZM11.7982 17.5677C11.7982 18.0173 11.4254 18.3901 10.9759 18.3901C10.5263 18.3901 10.1535 18.0173 10.1535 17.5677V14.2783C10.1535 13.8287 10.5263 13.4559 10.9759 13.4559C11.4254 13.4559 11.7982 13.8287 11.7982 14.2783V17.5677Z" fill="white"/>
</svg>
