<svg width="18" height="24" viewBox="0 0 18 24" fill="none" xmlns="http://www.w3.org/2000/svg">
<path d="M8.93741 10.8487C8.82777 10.8377 8.69619 10.8377 8.57557 10.8487C5.96592 10.761 3.89355 8.6228 3.89355 5.99122C3.89355 3.30482 6.06461 1.1228 8.76198 1.1228C11.4484 1.1228 13.6304 3.30482 13.6304 5.99122C13.6194 8.6228 11.5471 10.761 8.93741 10.8487Z" stroke="#C2C2C2" stroke-width="1.64474" stroke-linecap="round" stroke-linejoin="round"/>
<path d="M3.45498 14.8948C0.801467 16.6711 0.801467 19.5659 3.45498 21.3312C6.47033 23.3488 11.4155 23.3488 14.4309 21.3312C17.0844 19.5549 17.0844 16.6602 14.4309 14.8948C11.4265 12.8882 6.48129 12.8882 3.45498 14.8948Z" stroke="#C2C2C2" stroke-width="1.64474" stroke-linecap="round" stroke-linejoin="round"/>
</svg>
