<svg width="18" height="24" viewBox="0 0 18 24" fill="none" xmlns="http://www.w3.org/2000/svg">
<path d="M8.5 11.7C8.6 11.7 8.6 11.7 8.6 11.7C8.7 11.7 8.7 11.7 8.8 11.7H8.9C12 11.6 14.4 9.10005 14.4 6.00005C14.4 2.90005 11.8 0.300049 8.7 0.300049C5.6 0.300049 3 2.90005 3 6.00005C3.1 9.10005 5.5 11.6 8.5 11.7Z" fill="#DF0E11"/>
<path d="M14.9001 14.2C11.6001 12 6.3001 12 3.0001 14.2C1.5001 15.2 0.600098 16.6 0.600098 18.1C0.600098 19.6 1.4001 21 3.0001 22C4.6001 23.1 6.8001 23.6 8.9001 23.6C11.1001 23.6 13.2001 23.1 14.8001 22C16.3001 21 17.2001 19.6 17.2001 18.1C17.2001 16.6 16.4001 15.2 14.9001 14.2Z" fill="#DF0E11"/>
</svg>
