<svg width="25" height="24" viewBox="0 0 25 24" fill="none" xmlns="http://www.w3.org/2000/svg">
<path d="M18.7001 0H5.9001C3.0001 0 0.600098 2.3 0.600098 5.3V18.2C0.600098 21.1 2.9001 23.5 5.9001 23.5H18.8001C21.7001 23.5 24.1001 21.1 24.1001 18.1V5.3C24.0001 2.4 21.7001 0 18.7001 0ZM19.1001 7.4H10.0001C9.5001 7.4 9.1001 7 9.1001 6.5C9.1001 6 9.5001 5.6 10.0001 5.6H19.1001C19.6001 5.6 20.0001 6 20.0001 6.5C20.0001 7 19.6001 7.4 19.1001 7.4ZM4.5001 6.6C4.5001 5.8 5.2001 5.1 6.0001 5.1C6.8001 5.1 7.5001 5.8 7.5001 6.6C7.5001 7.4 6.8001 8.1 6.0001 8.1C5.2001 8.1 4.5001 7.5 4.5001 6.6ZM17.1001 12.3L11.2001 18.2C11.0001 18.4 10.8001 18.5 10.6001 18.5C10.4001 18.5 10.2001 18.4 10.0001 18.2L7.6001 15.8C7.3001 15.5 7.3001 14.9 7.6001 14.6C7.9001 14.3 8.5001 14.3 8.8001 14.6L10.6001 16.4L15.9001 11.1C16.2001 10.8 16.8001 10.8 17.1001 11.1C17.5001 11.4 17.5001 11.9 17.1001 12.3Z" fill="#DF0E11"/>
</svg>
