<svg width="24" height="24" viewBox="0 0 24 24" fill="none" xmlns="http://www.w3.org/2000/svg">
<path d="M18.2459 23.4986H5.32173C2.34985 23.4986 0 21.0867 0 18.1924V5.30612C0 2.34296 2.41897 0 5.32173 0H18.1768C21.1487 0 23.4986 2.41187 23.4986 5.30612V18.1235C23.5677 21.0867 21.1487 23.4986 18.2459 23.4986ZM5.32173 1.72277C3.31744 1.72277 1.72783 3.30771 1.72783 5.30612V18.1235C1.72783 20.1219 3.31744 21.7069 5.32173 21.7069H18.1768C20.1811 21.7069 21.7707 20.1219 21.7707 18.1235V5.30612C21.7707 3.30771 20.1811 1.72277 18.1768 1.72277H5.32173Z" fill="#C2C2C2"/>
<path d="M18.5915 7.44236H9.46853C8.98474 7.44236 8.57006 7.02889 8.57006 6.54652C8.57006 6.06414 8.98474 5.65068 9.46853 5.65068H18.5915C19.0753 5.65068 19.49 6.06414 19.49 6.54652C19.49 7.02889 19.0753 7.44236 18.5915 7.44236Z" fill="#C2C2C2"/>
<path d="M5.52907 8.13146C6.36882 8.13146 7.04956 7.45271 7.04956 6.61543C7.04956 5.77814 6.36882 5.09939 5.52907 5.09939C4.68933 5.09939 4.00857 5.77814 4.00857 6.61543C4.00857 7.45271 4.68933 8.13146 5.52907 8.13146Z" fill="#C2C2C2"/>
<path d="M10.0214 18.4681C9.8141 18.4681 9.60676 18.3992 9.39942 18.1924L6.98045 15.7806C6.63489 15.436 6.63489 14.8847 6.98045 14.5402C7.32602 14.1956 7.87893 14.1956 8.22449 14.5402L10.0214 16.3318L15.3432 11.0257C15.6887 10.6812 16.2416 10.6812 16.5872 11.0257C16.9328 11.3703 16.9328 11.9216 16.5872 12.2661L10.6435 18.1924C10.4361 18.3992 10.2288 18.4681 10.0214 18.4681Z" fill="#C2C2C2"/>
</svg>
