<svg width="24" height="24" viewBox="0 0 24 24" fill="none" xmlns="http://www.w3.org/2000/svg">
<path d="M1.69686 6.72599H22.4863M8.2758 1.24354V6.57248M15.9084 1.24354V6.07906M23.057 15.3772V8.79824C23.057 3.31578 20.864 1.1228 15.3816 1.1228H8.80264C3.32018 1.1228 1.1272 3.31578 1.1272 8.79824V15.3772C1.1272 20.8596 3.32018 23.0526 8.80264 23.0526H15.3816C20.864 23.0526 23.057 20.8596 23.057 15.3772ZM9.625 13.4584C9.625 11.7698 10.8202 11.0791 12.2785 11.9234L14.5592 13.2391C16.0175 14.0834 16.0175 15.465 14.5592 16.3093L12.2785 17.6251C10.8202 18.4694 9.625 17.7786 9.625 16.09V13.4584Z" stroke="#C2C2C2" stroke-width="1.64474" stroke-miterlimit="10" stroke-linecap="round" stroke-linejoin="round"/>
</svg>
