<svg width="25" height="25" viewBox="0 0 25 25" fill="none" xmlns="http://www.w3.org/2000/svg">
<path d="M11 17.6C11.2 17.7 11.6 17.7 12 17.4L14.3 16.1C14.7 15.9 15 15.5 15 15.3C15 15 14.7 14.7 14.3 14.5L12 13.2C11.7 13 11.4 12.9 11.2 12.9C11.1 12.9 11 12.9 10.9 13C10.7 13.1 10.5 13.5 10.5 14V16.6C10.7 17.1 10.8 17.4 11 17.6Z" fill="#DF0E11"/>
<path d="M15.2998 0.800049H9.2998V6.40005H15.2998V0.800049Z" fill="#DF0E11"/>
<path d="M23.9 6.40005C23.2 2.90005 21 1.10005 17 0.800049V6.30005H23.9V6.40005Z" fill="#DF0E11"/>
<path d="M0.5 9.3V15.9C0.5 21.9 3 24.4 9 24.4H15.6C21.6 24.4 24.1 21.9 24.1 15.9V9.3C24.1 8.9 24.1 8.5 24.1 8H0.599998C0.599998 8.4 0.5 8.8 0.5 9.3ZM9 13.9C9 12.8 9.4 11.9 10.2 11.5C11 11.1 11.9 11.1 12.9 11.7L15.2 13C16.2 13.6 16.7 14.4 16.7 15.2C16.7 16.1 16.2 16.9 15.2 17.4L12.9 18.7C12.4 19 11.8 19.2 11.3 19.2C10.9 19.2 10.5 19.1 10.2 18.9C9.4 18.5 9 17.6 9 16.5V13.9Z" fill="#DF0E11"/>
<path d="M7.6998 0.800049C3.6998 1.10005 1.4998 2.80005 0.799805 6.30005H7.6998V0.800049Z" fill="#DF0E11"/>
</svg>
